<svg width="2666" height="1348" viewBox="0 0 2666 1348" fill="none" xmlns="http://www.w3.org/2000/svg">
<g clip-path="url(#clip0_6_131)">
<rect width="2666" height="1348" fill="url(#paint0_radial_6_131)"/>
<g clip-path="url(#clip1_6_131)">
<rect width="3195.26" height="1348" transform="translate(-265)" fill="#121214"/>
<g opacity="0.1">
<path fill-rule="evenodd" clip-rule="evenodd" d="M2538.02 56.7635C2538.02 56.7635 2604.5 116.307 2644.01 139.458C2683.52 162.609 2705.17 152.688 2705.17 152.688C2705.17 152.688 2740.06 162.868 2761.41 179.279C2782.75 195.691 2786.22 208.153 2799.45 224.694C2812.69 241.235 2853.12 236.702 2853.12 236.702L2945.31 284.54L3039.01 336.641C3039.01 336.641 2946.31 282.312 2936.51 265.771C2926.71 249.23 2850.57 189.081 2837.34 172.54C2824.11 155.999 2805.91 159.309 2792.68 136.158C2779.45 113.007 2764.57 86.5352 2743.06 66.6946C2721.56 46.8433 2676.95 17.0716 2652.94 3.84101C2628.94 -9.38963 2590.9 -22.6202 2590.9 -22.6202L2524.75 -37.506L2460.25 -72.7625H2164.2C2164.2 -72.7625 2309.41 27.0028 2375.4 51.8088C2400.37 61.1882 2538.03 56.7744 2538.03 56.7744L2538.02 56.7635Z" fill="#633BBC"/>
<path fill-rule="evenodd" clip-rule="evenodd" d="M1072.11 365.113C1072.11 365.113 1122.14 397.827 1136.13 409.813C1150.12 421.8 1196.06 427.133 1205.06 430.465C1214.06 433.797 1235.63 463.774 1235.63 463.774C1235.63 463.774 1248.06 485.941 1251.04 501.833C1254.03 517.725 1293.92 535.715 1293.92 535.715L1331.78 551.705C1331.78 551.705 1273.12 485.757 1266.57 469.778C1260.02 453.789 1268.05 439.141 1251.05 430.476C1234.04 421.821 1192.71 407.834 1188.4 391.844C1184.1 375.855 1116.82 319.903 1095.51 309.918C1074.19 299.922 1010.98 275.949 1010.98 275.949C1010.98 275.949 1052.05 343.152 1072.12 365.134L1072.11 365.113Z" fill="#633BBC"/>
<path fill-rule="evenodd" clip-rule="evenodd" d="M-31.0977 716.811C-31.0977 716.811 50.4389 789.844 98.9044 818.253C147.37 846.651 173.939 834.48 173.939 834.48C173.939 834.48 216.736 846.964 242.916 867.097C269.096 887.229 273.358 902.516 289.586 922.81C305.813 943.095 355.414 937.534 355.414 937.534L468.486 996.212L583.429 1060.11C583.429 1060.11 469.719 993.475 457.7 973.191C445.67 952.907 352.277 879.116 336.05 858.832C319.822 838.548 297.505 842.605 281.277 814.196C265.05 785.798 246.789 753.333 220.414 728.992C194.039 704.651 139.31 668.129 109.874 651.902C80.4269 635.674 33.7681 619.436 33.7681 619.436L-47.3791 601.175L-126.503 557.924H-489.67C-489.67 557.924 -311.548 680.299 -230.596 710.731C-199.98 722.241 -31.0977 716.822 -31.0977 716.822V716.811Z" fill="#633BBC"/>
<path fill-rule="evenodd" clip-rule="evenodd" d="M2674.04 526.712C2674.04 526.712 2784.54 588.279 2798.53 600.265C2812.52 612.252 2789.79 619.954 2796.32 626.986C2812.59 644.49 2896.25 667.976 2896.25 667.976C2896.25 667.976 2910.22 672.725 2913.2 688.617C2916.19 704.509 2934.91 714.797 2934.91 714.797L2972.76 730.787C2972.76 730.787 2892.74 663.714 2886.19 647.735C2879.63 631.746 2869.21 629.864 2852.22 621.209C2835.21 612.555 2778.61 589.826 2774.31 573.836C2770 557.847 2666.98 432.118 2645.66 422.133C2624.34 412.137 2544.12 399.945 2544.12 399.945C2544.12 399.945 2653.97 504.73 2674.04 526.712Z" fill="#633BBC"/>
<path fill-rule="evenodd" clip-rule="evenodd" d="M802.009 -33.721C802.009 -33.721 895.369 35.948 938.415 54.3065C938.415 54.3065 992.257 50.2821 999.538 54.3065C1006.82 58.3308 1038.8 78.1714 1042.11 85.8955C1045.42 93.6089 1047.62 110.15 1054.23 117.874C1060.86 125.587 1120.39 154.256 1141.34 157.566C1162.3 160.876 1213.01 170.797 1222.93 177.417C1232.85 184.038 1229.55 199.465 1235.06 207.189C1240.58 214.902 1273.65 228.144 1286.88 236.961C1300.11 245.777 1341.45 243.581 1353.85 249.088C1366.26 254.605 1392.72 271.135 1392.72 271.135L1402.63 279.952C1402.63 279.952 1397.11 298.7 1402.63 304.206C1408.16 309.724 1431.31 314.127 1431.31 314.127C1431.31 314.127 1413.67 296.482 1413.67 285.458C1413.67 274.435 1402.63 265.607 1402.63 265.607C1402.63 265.607 1347.52 240.249 1339.79 233.629C1332.08 227.008 1262.6 169.672 1257.1 159.751C1251.58 149.831 1239.45 122.266 1232.84 114.542C1226.22 106.829 1163.38 90.2877 1147.94 83.667C1132.5 77.0463 1112.64 57.2057 1103.27 40.6647C1093.92 24.1237 1076.27 -21.6588 1070.75 -27.6953C1065.24 -33.7319 1053.11 -33.7319 1053.11 -33.7319H801.987L802.009 -33.721Z" fill="#633BBC"/>
<path fill-rule="evenodd" clip-rule="evenodd" d="M1733.24 474.032C1733.24 474.032 1783.27 506.746 1797.26 518.732C1811.25 530.719 1857.2 536.052 1866.2 539.384C1875.2 542.716 1896.77 572.694 1896.77 572.694C1896.77 572.694 1909.2 594.86 1912.17 610.752C1915.16 626.644 1955.06 644.634 1955.06 644.634L1992.91 660.624C1992.91 660.624 1934.25 594.676 1927.71 578.698C1921.15 562.708 1929.18 548.061 1912.18 539.395C1895.18 530.741 1853.84 516.753 1849.54 500.764C1845.23 484.774 1777.95 428.823 1756.64 418.837C1735.33 408.841 1672.12 384.868 1672.12 384.868C1672.12 384.868 1713.18 452.071 1733.25 474.053L1733.24 474.032Z" fill="#633BBC"/>
<path fill-rule="evenodd" clip-rule="evenodd" d="M1745.95 107.932C1745.95 107.932 1812.43 167.476 1851.93 190.626C1891.44 213.777 1913.1 203.857 1913.1 203.857C1913.1 203.857 1947.99 214.037 1969.33 230.448C1990.68 246.859 1987.37 276.631 2000.6 293.172C2013.83 309.713 2068.41 298.138 2068.41 298.138L2150.19 388.48L2204.25 445.33C2204.25 445.33 2145.9 369.245 2136.1 352.715C2126.29 336.174 2058.49 240.249 2045.24 223.708C2032.01 207.167 2013.82 210.478 2000.59 187.327C1987.36 164.176 1972.47 137.704 1950.96 117.863C1929.47 98.012 1884.85 68.2404 1860.85 55.0098C1836.84 41.7791 1798.81 28.5485 1798.81 28.5485L1732.65 13.6627L1668.15 -21.5938H1372.1C1372.1 -21.5938 1517.32 78.1715 1583.31 102.978C1608.28 112.357 1745.94 107.943 1745.94 107.943L1745.95 107.932Z" fill="#633BBC"/>
<path fill-rule="evenodd" clip-rule="evenodd" d="M2007.64 -11.554C2007.64 -11.554 2043.62 39.7134 2069.39 54.5992C2095.15 69.485 2127.72 75.8245 2139.9 90.7103C2152.09 105.596 2199.22 139.63 2199.22 139.63L2266.9 167.617C2266.9 167.617 2174.76 89.7259 2164.67 71.6054C2154.57 53.4958 2127.47 38.6099 2127.47 38.6099L2007.64 -11.554Z" fill="#633BBC"/>
<path fill-rule="evenodd" clip-rule="evenodd" d="M-302.447 291.151C-302.447 291.151 -186.682 374.895 -163.444 395.039C-140.207 415.182 -77.7861 413.657 -57.1234 434.795C-36.4607 455.934 0.591553 465.194 26.5336 493.917C52.4756 522.628 138.394 543.788 167.678 577.671C196.974 611.553 246.792 625.433 271.901 640.73C297.01 656.027 374.825 693.079 374.825 693.079C374.825 693.079 279.83 648.617 264.339 604.154C248.847 559.691 257.642 504.28 257.642 504.28C257.642 504.28 277.548 499.921 257.642 463.106C237.737 426.292 254.364 402.828 229.374 371.952C204.384 341.077 192.43 285.494 209.523 259.562C226.616 233.631 266.438 157.493 257.642 112.197C248.847 66.8906 326.154 33.549 326.154 33.549C326.154 33.549 443.055 44.6701 457.108 63.1908C471.161 81.7224 574.042 112.197 574.042 112.197C574.042 112.197 656.249 116.741 667.457 112.197C678.653 107.654 713.888 137.295 742.589 163.227C771.289 189.169 776.883 173.363 816.737 201.123C856.602 228.882 864.218 270.792 887.087 291.162C887.087 291.162 861.491 246.429 853.443 201.123C853.443 201.123 894.39 205.634 924.031 213.044C953.673 220.455 967.877 218.81 988.356 234.453C1008.84 250.097 1031.38 259.973 1031.38 259.973C1031.38 259.973 996.697 228.687 988.356 211.389C980.015 194.102 973.427 176.803 962.728 170.215C952.029 163.627 830.919 133.076 799.893 118.71C768.866 104.343 742.589 57.0028 742.589 57.0028C742.589 57.0028 671.578 -42.7625 626.78 -44.277C581.982 -45.7915 503.453 -67.3522 474.861 -87.5064C446.268 -107.661 351.912 -222.171 351.912 -222.171H-286.696L-302.447 291.151Z" fill="#633BBC"/>
<path fill-rule="evenodd" clip-rule="evenodd" d="M721.934 491.641C721.934 491.641 771.968 524.355 785.956 536.342C799.944 548.328 845.888 553.662 854.889 556.994C863.89 560.326 885.461 590.303 885.461 590.303C885.461 590.303 897.891 612.469 900.866 628.361C903.852 644.253 943.75 662.244 943.75 662.244L981.603 678.233C981.603 678.233 922.946 612.285 916.401 596.307C909.846 580.318 917.873 565.67 900.877 557.005C883.871 548.35 842.535 534.362 838.229 518.373C833.924 502.384 766.645 446.432 745.333 436.447C724.022 426.451 660.811 402.478 660.811 402.478C660.811 402.478 701.877 469.68 721.945 491.663L721.934 491.641Z" fill="#633BBC"/>
</g>
<path d="M2036.88 22.8575C2035.37 22.8575 2034.14 21.4597 2034.14 19.7354C2034.14 18.011 2035.37 16.6131 2036.88 16.6131C2038.4 16.6131 2039.63 18.011 2039.63 19.7354C2039.63 21.4597 2038.4 22.8575 2036.88 22.8575Z" fill="white"/>
<path d="M1951.23 14.545C1951.23 15.6735 1952.05 16.6138 1953.07 16.6138C1954.08 16.6138 1954.91 15.6735 1954.91 14.545C1954.91 13.4165 1954.08 12.4761 1953.07 12.4761C1952.05 12.4761 1951.23 13.4165 1951.23 14.545Z" fill="white"/>
<path d="M1999.74 379.24C1998.38 378.488 1996.73 379.127 1996.05 380.669C1995.37 382.212 1995.94 384.093 1997.33 384.845C1998.72 385.597 2000.34 384.958 2001.01 383.415C2001.69 381.873 2001.13 379.992 1999.74 379.24Z" fill="white"/>
<path d="M1934.46 96.6633C1933.56 96.1743 1932.43 96.5881 1931.98 97.6038C1931.52 98.6194 1931.9 99.8607 1932.8 100.387C1933.71 100.876 1934.83 100.463 1935.28 99.447C1935.74 98.4313 1935.36 97.19 1934.46 96.6633Z" fill="white"/>
<path d="M2319.41 326.018C2317.27 326.507 2315.84 328.839 2316.29 331.284C2316.71 333.729 2318.81 335.271 2320.96 334.82C2323.1 334.331 2324.53 331.999 2324.08 329.554C2323.66 327.146 2321.56 325.566 2319.41 326.018Z" fill="white"/>
<g opacity="0.64">
<path d="M2640.42 170.124C2640.01 169.898 2639.56 170.124 2639.37 170.538C2639.18 170.989 2639.37 171.516 2639.74 171.741C2640.16 171.967 2640.61 171.741 2640.8 171.327C2640.98 170.914 2640.8 170.349 2640.42 170.124Z" fill="white"/>
</g>
<g opacity="0.64">
<path d="M2093.95 220.502C2094.06 219.749 2093.61 219.072 2092.97 218.922C2092.33 218.809 2091.69 219.298 2091.58 220.013C2091.47 220.765 2091.92 221.442 2092.56 221.593C2093.2 221.743 2093.83 221.216 2093.95 220.502Z" fill="white"/>
<path d="M2129.11 229.604C2129.19 229.115 2128.89 228.663 2128.48 228.55C2128.02 228.475 2127.61 228.814 2127.54 229.303C2127.46 229.792 2127.76 230.243 2128.17 230.356C2128.63 230.431 2129.04 230.093 2129.11 229.604Z" fill="white"/>
<path d="M2218.99 228.997C2219.97 229.787 2221.32 229.524 2222 228.433C2222.71 227.342 2222.49 225.837 2221.51 225.047C2220.53 224.257 2219.18 224.52 2218.5 225.611C2217.79 226.702 2218.01 228.207 2218.99 228.997Z" fill="white"/>
<path d="M2081.87 127.844C2082.5 128.371 2083.41 128.22 2083.9 127.468C2084.35 126.753 2084.23 125.738 2083.56 125.211C2082.92 124.685 2082.02 124.835 2081.53 125.587C2081.08 126.302 2081.19 127.318 2081.87 127.844Z" fill="white"/>
<path d="M2022.65 141.238C2023.59 141.238 2024.34 140.336 2024.34 139.245C2024.34 138.154 2023.52 137.326 2022.58 137.364C2021.64 137.364 2020.88 138.267 2020.88 139.357C2020.88 140.448 2021.71 141.276 2022.65 141.238Z" fill="white"/>
<path d="M2314.9 110.773C2314.9 112.127 2315.88 113.218 2317.08 113.218C2318.29 113.218 2319.27 112.127 2319.27 110.773C2319.27 109.418 2318.29 108.328 2317.08 108.328C2315.88 108.328 2314.9 109.418 2314.9 110.773Z" fill="white"/>
<path d="M2393.15 279.596C2393.15 282.304 2395.11 284.486 2397.52 284.486C2399.92 284.486 2401.88 282.304 2401.88 279.596C2401.88 276.888 2399.92 274.706 2397.52 274.706C2395.11 274.706 2393.15 276.888 2393.15 279.596Z" fill="white"/>
</g>
<g opacity="0.64">
<path d="M185.683 21.9683C185.307 21.5545 184.705 21.5545 184.329 21.9683C183.953 22.3821 183.953 23.0968 184.329 23.5106C184.705 23.9244 185.307 23.9244 185.683 23.5106C186.059 23.0968 186.059 22.3821 185.683 21.9683Z" fill="white"/>
</g>
<g opacity="0.64">
<path d="M1177.57 252.065C1178.18 252.704 1179.19 252.855 1179.83 252.328C1180.47 251.839 1180.51 250.899 1179.87 250.221C1179.27 249.582 1178.25 249.432 1177.61 249.958C1176.97 250.447 1176.94 251.388 1177.57 252.065Z" fill="white"/>
<path d="M1080.84 235.699C1081.25 236.15 1081.93 236.226 1082.34 235.887C1082.76 235.549 1082.79 234.909 1082.34 234.495C1081.93 234.044 1081.25 233.969 1080.84 234.307C1080.42 234.646 1080.39 235.285 1080.84 235.699Z" fill="white"/>
<path d="M1175.22 358.822C1174.4 358.972 1173.91 359.762 1174.17 360.59C1174.43 361.417 1175.34 361.906 1176.16 361.756C1176.99 361.605 1177.48 360.816 1177.22 359.988C1176.95 359.16 1176.05 358.671 1175.22 358.822Z" fill="white"/>
<path d="M974.229 348.517C973.665 348.63 973.365 349.157 973.553 349.684C973.741 350.21 974.342 350.586 974.869 350.474C975.433 350.361 975.734 349.834 975.546 349.307C975.358 348.781 974.756 348.405 974.229 348.517Z" fill="white"/>
<path d="M1308.94 246.424C1308.22 247.327 1308.45 248.681 1309.5 249.471C1310.55 250.261 1311.98 250.186 1312.7 249.283C1313.41 248.38 1313.19 247.026 1312.13 246.236C1311.08 245.446 1309.65 245.522 1308.94 246.424Z" fill="white"/>
</g>
<g opacity="0.64">
<path d="M711.806 352.301C711.242 352.94 711.205 353.956 711.806 354.595C712.408 355.235 713.273 355.272 713.874 354.595C714.438 353.956 714.476 352.94 713.874 352.301C713.31 351.661 712.408 351.624 711.806 352.301Z" fill="white"/>
<path d="M717.252 253.06C716.876 253.474 716.876 254.151 717.252 254.602C717.628 255.016 718.23 255.054 718.606 254.602C718.982 254.188 718.982 253.474 718.606 253.06C718.23 252.646 717.628 252.608 717.252 253.06Z" fill="white"/>
<path d="M602.608 327.057C602.345 326.192 601.555 325.74 600.766 326.003C600.014 326.267 599.6 327.207 599.826 328.072C600.089 328.938 600.879 329.389 601.668 329.126C602.42 328.862 602.834 327.922 602.608 327.057Z" fill="white"/>
<path d="M595.665 145.1C595.515 144.536 594.951 144.235 594.462 144.423C593.973 144.611 593.672 145.213 593.86 145.815C594.011 146.379 594.575 146.68 595.064 146.492C595.552 146.304 595.853 145.702 595.665 145.1Z" fill="white"/>
<path d="M688.252 443.657C687.312 442.905 685.996 443.205 685.356 444.259C684.717 445.312 684.943 446.779 685.883 447.531C686.823 448.284 688.139 447.983 688.778 446.93C689.417 445.876 689.192 444.409 688.252 443.657Z" fill="white"/>
</g>
<g opacity="0.64">
<path d="M990.868 104.625C990.755 105.377 991.207 106.054 991.846 106.205C992.485 106.318 993.124 105.829 993.237 105.114C993.35 104.362 992.899 103.684 992.259 103.534C991.62 103.384 990.981 103.91 990.868 104.625Z" fill="white"/>
<path d="M955.686 95.5262C955.611 96.0152 955.911 96.4666 956.325 96.5794C956.776 96.6547 957.19 96.3162 957.265 95.8272C957.34 95.3381 957.039 94.8867 956.626 94.7739C956.175 94.6987 955.761 95.0371 955.686 95.5262Z" fill="white"/>
<path d="M865.816 96.1643C864.839 95.3743 863.485 95.6376 862.808 96.7285C862.094 97.8194 862.32 99.324 863.297 100.114C864.275 100.904 865.628 100.641 866.305 99.5498C867.02 98.4589 866.794 96.9542 865.816 96.1643Z" fill="white"/>
<path d="M906.725 39.3218C906.086 38.7952 905.184 38.9457 904.695 39.698C904.244 40.4128 904.356 41.4284 905.033 41.9551C905.672 42.4817 906.575 42.3312 907.064 41.5789C907.552 40.8265 907.402 39.8485 906.725 39.3218Z" fill="white"/>
<path d="M1086.2 212.626C1085.26 212.626 1084.5 213.529 1084.5 214.62C1084.5 215.711 1085.33 216.538 1086.27 216.501C1087.21 216.501 1087.96 215.598 1087.96 214.507C1087.96 213.416 1087.14 212.589 1086.2 212.626Z" fill="white"/>
<path d="M801.199 342.413C799.994 342.413 799.018 341.318 799.018 339.968C799.018 338.618 799.994 337.523 801.199 337.523C802.403 337.523 803.38 338.618 803.38 339.968C803.38 341.318 802.403 342.413 801.199 342.413Z" fill="white"/>
<path d="M691.634 45.5307C691.634 42.8222 689.679 40.6405 687.272 40.6405C684.866 40.6405 682.911 42.8222 682.911 45.5307C682.911 48.2391 684.866 50.4209 687.272 50.4209C689.679 50.4209 691.634 48.2391 691.634 45.5307Z" fill="white"/>
</g>
<g opacity="0.64">
<path d="M2263.06 649.329C2262.87 648.615 2262.2 648.126 2261.56 648.276C2260.92 648.426 2260.54 649.104 2260.73 649.818C2260.92 650.533 2261.59 651.022 2262.23 650.872C2262.87 650.721 2263.25 650.044 2263.06 649.329Z" fill="white"/>
<path d="M2299 643.839C2298.89 643.35 2298.44 643.049 2297.99 643.125C2297.53 643.2 2297.31 643.689 2297.42 644.178C2297.53 644.667 2297.99 644.968 2298.44 644.893C2298.89 644.817 2299.11 644.328 2299 643.839Z" fill="white"/>
<path d="M2381.3 607.956C2382.51 608.294 2383.64 607.542 2383.86 606.263C2384.09 604.984 2383.26 603.667 2382.06 603.329C2380.85 602.99 2379.73 603.743 2379.5 605.022C2379.27 606.301 2380.1 607.617 2381.3 607.956Z" fill="white"/>
<path d="M2366.3 676.231C2367.09 676.457 2367.88 675.968 2367.99 675.103C2368.14 674.238 2367.58 673.373 2366.79 673.147C2366 672.921 2365.21 673.41 2365.1 674.275C2364.95 675.141 2365.51 676.006 2366.3 676.231Z" fill="white"/>
<path d="M2132.59 587.642C2133.45 587.229 2133.79 586.138 2133.34 585.16C2132.89 584.182 2131.84 583.73 2130.97 584.106C2130.11 584.52 2129.77 585.611 2130.22 586.589C2130.67 587.567 2131.72 588.019 2132.59 587.642Z" fill="white"/>
<path d="M2341.82 359.416C2342.34 360.657 2343.7 361.297 2344.79 360.808C2345.88 360.319 2346.37 358.964 2345.8 357.723C2345.24 356.482 2343.92 355.842 2342.83 356.331C2341.74 356.82 2341.25 358.174 2341.82 359.416Z" fill="white"/>
</g>
<g opacity="0.64">
<path d="M941.747 609.747C941.446 608.129 940.319 607.038 939.266 607.377C938.213 607.678 937.574 609.295 937.912 610.913C938.251 612.53 939.341 613.621 940.394 613.283C941.446 612.944 942.086 611.364 941.747 609.747Z" fill="white"/>
<path d="M1000.67 597.368C1000.49 596.277 999.733 595.562 999.019 595.788C998.305 596.014 997.891 597.067 998.117 598.158C998.305 599.249 999.057 599.964 999.771 599.738C1000.49 599.512 1000.9 598.459 1000.67 597.368Z" fill="white"/>
<path d="M1135.7 516.01C1137.65 516.8 1139.53 515.069 1139.87 512.173C1140.21 509.276 1138.89 506.304 1136.94 505.515C1134.98 504.725 1133.1 506.455 1132.76 509.352C1132.43 512.248 1133.74 515.22 1135.7 516.01Z" fill="white"/>
<path d="M1111.07 670.759C1112.39 671.285 1113.63 670.119 1113.85 668.201C1114.08 666.282 1113.22 664.289 1111.9 663.762C1110.58 663.235 1109.34 664.401 1109.12 666.32C1108.89 668.238 1109.76 670.232 1111.07 670.759Z" fill="white"/>
<path d="M528.541 550.05C529.97 549.147 530.534 546.627 529.782 544.407C529.03 542.188 527.3 541.135 525.872 542.038C524.443 542.94 523.879 545.461 524.631 547.68C525.383 549.899 527.113 550.953 528.541 550.05Z" fill="white"/>
</g>
<g opacity="0.64">
<path d="M1576.88 376.907C1577.52 376.493 1577.75 375.703 1577.41 375.139C1577.07 374.575 1576.28 374.424 1575.64 374.838C1575 375.252 1574.78 376.042 1575.12 376.606C1575.45 377.17 1576.24 377.321 1576.88 376.907Z" fill="white"/>
<path d="M1593.39 409.147C1593.8 408.883 1593.95 408.357 1593.72 407.98C1593.5 407.604 1592.97 407.529 1592.56 407.792C1592.14 408.056 1591.99 408.582 1592.22 408.959C1592.45 409.335 1592.97 409.41 1593.39 409.147Z" fill="white"/>
<path d="M1653.55 475.574C1653.59 476.816 1654.68 477.643 1655.96 477.455C1657.24 477.267 1658.25 476.064 1658.18 474.822C1658.14 473.581 1657.05 472.753 1655.77 472.941C1654.49 473.129 1653.48 474.333 1653.55 475.574Z" fill="white"/>
<path d="M1583.69 482.876C1583.69 483.704 1584.44 484.268 1585.3 484.117C1586.17 483.967 1586.81 483.214 1586.81 482.387C1586.81 481.559 1586.06 480.995 1585.19 481.146C1584.33 481.296 1583.69 482.048 1583.69 482.876Z" fill="white"/>
<path d="M1594.64 234.3C1595.28 234.977 1596.49 234.977 1597.28 234.225C1598.07 233.51 1598.18 232.344 1597.54 231.629C1596.9 230.952 1595.7 230.952 1594.91 231.704C1594.12 232.419 1594.01 233.585 1594.64 234.3Z" fill="white"/>
<path d="M1878.2 360.133C1877.19 361.035 1877 362.465 1877.79 363.368C1878.58 364.271 1880.05 364.271 1881.06 363.368C1882.08 362.465 1882.26 361.035 1881.48 360.133C1880.69 359.23 1879.22 359.23 1878.2 360.133Z" fill="white"/>
</g>
<g opacity="0.64">
<path d="M286.377 523.351C286.189 522.637 285.512 522.148 284.873 522.298C284.234 522.448 283.858 523.126 284.046 523.84C284.234 524.555 284.91 525.044 285.55 524.894C286.189 524.743 286.565 524.066 286.377 523.351Z" fill="white"/>
<path d="M322.312 517.9C322.199 517.411 321.748 517.11 321.297 517.186C320.846 517.261 320.62 517.75 320.733 518.239C320.846 518.728 321.297 519.029 321.748 518.954C322.199 518.878 322.425 518.389 322.312 517.9Z" fill="white"/>
<path d="M404.621 481.967C405.824 482.306 406.952 481.553 407.178 480.275C407.403 478.996 406.576 477.679 405.373 477.34C404.17 477.002 403.042 477.754 402.816 479.033C402.591 480.312 403.418 481.629 404.621 481.967Z" fill="white"/>
<path d="M155.921 461.662C156.785 461.248 157.124 460.157 156.673 459.179C156.221 458.201 155.169 457.749 154.304 458.126C153.439 458.539 153.101 459.63 153.552 460.608C154.003 461.586 155.056 462.038 155.921 461.662Z" fill="white"/>
</g>
<path d="M1722.53 148.007C1721.43 145.562 1718.8 144.584 1716.62 145.825C1714.44 147.067 1713.58 150.039 1714.67 152.484C1715.76 154.929 1718.39 155.907 1720.57 154.665C1722.75 153.424 1723.62 150.452 1722.53 148.007Z" fill="white"/>
<path d="M1408.71 150.905C1410.26 150.905 1411.46 149.475 1411.46 147.745C1411.46 146.015 1410.18 144.66 1408.68 144.66C1407.13 144.66 1405.93 146.09 1405.93 147.82C1405.93 149.55 1407.21 150.905 1408.71 150.905Z" fill="white"/>
<path d="M1704.6 249.049C1705.62 249.049 1706.44 248.108 1706.4 246.942C1706.4 245.814 1705.54 244.873 1704.52 244.911C1703.51 244.911 1702.68 245.851 1702.72 247.018C1702.72 248.146 1703.59 249.087 1704.6 249.049Z" fill="white"/>
<path d="M1079.85 264.469C1078.87 262.287 1076.5 261.422 1074.54 262.513C1072.59 263.603 1071.84 266.274 1072.81 268.456C1073.79 270.638 1076.16 271.503 1078.12 270.412C1080.07 269.321 1080.82 266.65 1079.85 264.469Z" fill="white"/>
<path d="M775.972 535.761C777.1 535.761 778.002 534.708 778.002 533.429C778.002 532.15 777.062 531.134 775.934 531.134C774.806 531.134 773.904 532.188 773.904 533.467C773.904 534.745 774.844 535.761 775.972 535.761Z" fill="white"/>
<path d="M902.626 151.549C904.807 151.549 906.536 149.517 906.499 147.072C906.499 144.627 904.694 142.671 902.513 142.709C900.332 142.746 898.603 144.74 898.64 147.185C898.64 149.63 900.445 151.586 902.626 151.549Z" fill="white"/>
<path d="M177.016 282.983C178.032 282.08 178.22 280.425 177.43 279.296C176.641 278.168 175.174 277.942 174.159 278.845C173.144 279.748 172.956 281.403 173.745 282.531C174.535 283.66 176.001 283.886 177.016 282.983Z" fill="white"/>
<path d="M525.366 798.1C526.494 798.1 527.396 797.046 527.396 795.768C527.396 794.489 526.456 793.473 525.328 793.473C524.2 793.473 523.298 794.526 523.298 795.805C523.298 797.084 524.238 798.1 525.366 798.1Z" fill="white"/>
<path d="M621.913 391.311C624.094 391.311 625.824 389.28 625.786 386.835C625.786 384.39 623.981 382.434 621.801 382.471C619.62 382.509 617.89 384.503 617.928 386.948C617.928 389.393 619.732 391.349 621.913 391.311Z" fill="white"/>
<g opacity="0.4" filter="url(#filter0_f_6_131)">
<ellipse cx="1302.05" cy="29.9556" rx="1473.44" ry="742.648" fill="#633BBC"/>
</g>
<rect opacity="0.8" width="3195.26" height="1617.6" transform="matrix(1 0 0 -1 -265.001 1617.6)" fill="url(#paint1_linear_6_131)"/>
</g>
</g>
<defs>
<filter id="filter0_f_6_131" x="-920.279" y="-1461.58" width="4444.66" height="2983.07" filterUnits="userSpaceOnUse" color-interpolation-filters="sRGB">
<feFlood flood-opacity="0" result="BackgroundImageFix"/>
<feBlend mode="normal" in="SourceGraphic" in2="BackgroundImageFix" result="shape"/>
<feGaussianBlur stdDeviation="374.444" result="effect1_foregroundBlur_6_131"/>
</filter>
<radialGradient id="paint0_radial_6_131" cx="0" cy="0" r="1" gradientUnits="userSpaceOnUse" gradientTransform="translate(1333 674) rotate(90) scale(878.5 1737.45)">
<stop stop-color="#222F7A"/>
<stop offset="1" stop-color="#070B24"/>
</radialGradient>
<linearGradient id="paint1_linear_6_131" x1="1597.63" y1="0" x2="1597.63" y2="1617.6" gradientUnits="userSpaceOnUse">
<stop stop-color="#121214"/>
<stop offset="1" stop-color="#121214" stop-opacity="0"/>
</linearGradient>
<clipPath id="clip0_6_131">
<rect width="2666" height="1348" fill="white"/>
</clipPath>
<clipPath id="clip1_6_131">
<rect width="3195.26" height="1348" fill="white" transform="translate(-265)"/>
</clipPath>
</defs>
</svg>
